<?xml version="1.0" encoding="UTF-8" standalone="no"?>
<svg width="52px" height="51px" viewBox="0 0 52 51" version="1.1" xmlns="http://www.w3.org/2000/svg" xmlns:xlink="http://www.w3.org/1999/xlink">
    <!-- Generator: Sketch 42 (36781) - http://www.bohemiancoding.com/sketch -->
    <title>agilie_logo_small</title>
    <desc>Created with Sketch.</desc>
    <defs></defs>
    <g id="Page-1" stroke="none" stroke-width="1" fill="none" fill-rule="evenodd">
        <g id="page-1" transform="translate(-374.000000, -55.000000)" fill-rule="nonzero" fill="#4FDCC3">
            <g id="Group-2" transform="translate(60.000000, 49.000000)">
                <g id="agilie_clover-copy-2" transform="translate(314.000000, 6.000000)">
                    <g id="Слой_1">
                        <g id="Group">
                            <path d="M25.2094196,26.7451196 L24.4851201,25.827799 L25.1804762,26.7867443 C24.949106,27.1248895 24.6993325,27.6196364 24.500707,28.2464397 C23.8120767,28.5523245 23.0156787,28.7860757 22.1497588,28.9276572 C22.2944479,28.0759726 22.5353868,27.2895251 22.8507179,26.606009 C23.5907083,26.3808854 24.1487289,26.0880144 24.4851201,25.827799 C24.7107322,25.6675235 25.2537326,25.3129938 25.5038192,25.1504729 L26.0594026,25.4892639 L24.4201894,26.8348538 L24.2074485,26.5809524 L25.8466617,25.2353625 L24.5124201,26.8782318 L24.2996793,26.7089642 L25.6339209,25.066095 L25.9881104,25.6028559 C25.8317186,25.8507762 25.4592991,26.4339848 25.2935355,26.6318199 C25.2659105,26.6671447 25.237828,26.7049267 25.2094196,26.7451196 Z M25.6339209,25.066095 L25.8466617,25.2353625 L26.0594026,25.4892639 C26.0594026,25.4892639 25.5062763,26.3779186 25.2935355,26.6318199 C24.697861,27.393524 23.8894457,29.2977841 24.1872829,31.8791144 C24.5276683,34.7989799 25.1658909,38.2266481 24.7829573,40.977246 C24.5276683,42.8391892 24.1872829,46.1822236 19.8899171,49.0597722 C16.6988039,51.2179337 12.8694681,51.0063492 10.9548002,50.0753776 C10.9548002,50.0753776 8.57210232,49.144406 7.76368697,46.6900263 C7.38075339,45.5474703 7.21056069,44.6588156 7.08291616,43.9394284 C6.35959717,43.8124777 5.4235373,43.6432102 4.31728472,43.2623582 C1.8920387,42.4583372 0.913430649,40.0885913 0.913430649,40.0885913 C-0.0226292213,38.1843312 -0.235370101,34.375811 1.93458687,31.2020442 C4.82786283,26.9280382 8.14662056,26.5895031 10.0612885,26.3356017 C12.8269199,25.9547497 16.2733222,26.5895031 19.2091463,26.9280382 C21.804585,27.1819395 23.7192529,26.4202355 24.4851201,25.827799 C24.7829573,25.6162146 25.6339209,25.066095 25.6339209,25.066095 Z M26.1860667,24.2334082 L26.9103661,25.1507288 L26.21501,24.1917835 C26.4463802,23.8536383 26.6961538,23.3588913 26.8947793,22.7320881 C27.5834096,22.4262033 28.3798075,22.1924521 29.2457275,22.0508705 C29.1010384,22.9025552 28.8600995,23.6890027 28.5447683,24.3725187 C27.804778,24.5976424 27.2467574,24.8905133 26.9103661,25.1507288 C26.6847541,25.3110042 26.1417536,25.6655339 25.891667,25.8280549 L25.3360836,25.4892639 L26.9752969,24.143674 L27.1880377,24.3975754 L25.5488245,25.7431652 L26.8830661,24.100296 L27.095807,24.2695635 L25.7615654,25.9124328 L25.4073759,25.3756719 C25.5637676,25.1277515 25.9361871,24.544543 26.1019508,24.3467078 C26.1295757,24.3113831 26.1576582,24.2736011 26.1860667,24.2334082 Z M25.7615654,25.9124328 L25.5488245,25.7431652 L25.3360836,25.4892639 C25.3360836,25.4892639 25.8892099,24.6006092 26.1019508,24.3467078 C26.6976253,23.5850038 27.5060406,21.6807437 27.2082034,19.0994133 C26.867818,16.1795478 26.2295953,12.7518797 26.6125289,10.0012817 C26.867818,8.13933853 27.2082034,4.79630414 31.5055691,1.91875554 C34.6966823,-0.239405906 38.5260182,-0.0278214501 40.4406861,0.903150154 C40.4406861,0.903150154 42.8233839,1.83412176 43.6317993,4.28850144 C44.0147329,5.4310575 44.1849256,6.31971222 44.3125701,7.03909937 C45.0358891,7.16605004 45.971949,7.3353176 47.0782015,7.71616962 C49.5034476,8.52019055 50.4820556,10.8899365 50.4820556,10.8899365 C51.4181155,12.7941966 51.6308564,16.6027168 49.4608994,19.7764836 C46.5676234,24.0504896 43.2488657,24.3890247 41.3341978,24.6429261 C38.5685663,25.0237781 35.1221641,24.3890247 32.18634,24.0504896 C29.5909012,23.7965882 27.6762333,24.5582923 26.9103661,25.1507288 C26.6125289,25.3623132 25.7615654,25.9124328 25.7615654,25.9124328 Z M24.142419,25.2251936 L25.1233428,24.4736585 L24.0980386,25.1950702 C23.770336,24.976314 23.3015205,24.7422305 22.7126197,24.5517566 C22.3971526,23.8688409 22.1549287,23.0752803 22.0067028,22.2102728 C22.8744706,22.3592622 23.6741642,22.6063924 24.3662474,22.9289879 C24.5889524,23.6248254 24.8713736,24.1514592 25.1233428,24.4736585 C25.282942,24.6958829 25.6341126,25.2277186 25.7995955,25.4795522 L25.42118,26.0817004 L24.0539846,24.4655926 L24.3092737,24.2540081 L25.676469,25.8701159 L24.0372558,24.524526 L24.2499967,24.2706247 L25.8892099,25.6162146 L25.2897444,26.000042 C25.0316564,25.8387893 24.4668469,25.4811718 24.2723792,25.3199963 C24.2321987,25.2889147 24.1888561,25.2572506 24.142419,25.2251936 Z M25.8892099,25.6162146 L25.676469,25.8701159 L25.42118,26.0817004 C25.42118,26.0817004 24.5276683,25.5315808 24.2723792,25.3199963 C23.5065121,24.7275598 21.5918442,23.9235389 18.9964054,24.2197572 C16.0605813,24.5582923 12.614179,25.1930457 9.84854759,24.8121936 C7.97642785,24.5582923 4.61512196,24.2197572 1.72184599,19.9457512 C-0.448110981,16.7719843 -0.235370101,12.9634641 0.743237946,11.0168871 C0.743237946,11.0168871 1.67929782,8.64714123 4.14709202,7.8431203 C5.29589277,7.46226828 6.18940446,7.29300071 6.91272346,7.16605004 C7.04036798,6.44666289 7.21056069,5.51569129 7.59349427,4.41545212 C8.40190961,2.00338932 10.7846075,1.03010083 10.7846075,1.03010083 C12.6992754,0.0991292232 16.5286112,-0.112455232 19.7197244,2.04570621 C24.0170902,4.92325481 24.3574756,8.22397232 24.6127646,10.1282324 C24.9956982,12.8788303 24.3574756,16.3064985 24.0170902,19.226364 C23.7618011,21.8076944 24.5276683,23.7119545 25.1233428,24.4736585 C25.3360836,24.7698767 25.8892099,25.6162146 25.8892099,25.6162146 Z M26.7358248,26.1718904 L25.8041136,26.8857213 L26.7778554,26.2005892 C27.1191535,26.4299413 27.6161872,26.676784 28.2446275,26.872926 C28.5516672,27.5544714 28.7865834,28.3427871 28.9293656,29.2000807 C28.0691096,29.0566468 27.2745889,28.8169171 26.5839703,28.5027816 C26.3579652,27.7710186 26.064748,27.2190012 25.8041136,26.8857213 C25.641842,26.6597761 25.2815302,26.1137646 25.1197064,25.8674159 L25.4637282,25.3199963 L26.8309235,26.9361041 L26.5756345,27.1476886 L25.2084391,25.5315808 L26.8744826,26.8444904 L26.7042899,27.0560749 L25.0382464,25.7431652 L25.5832456,25.3942116 C25.8354383,25.5516379 26.4150103,25.9179962 26.6125289,26.0817004 C26.6507811,26.1112904 26.6918992,26.1414082 26.7358248,26.1718904 Z M25.0382464,25.7431652 L25.2084391,25.5315808 L25.4637282,25.3199963 C25.4637282,25.3199963 26.3572399,25.8701159 26.6125289,26.0817004 C27.3783961,26.6741368 29.293064,27.4781578 31.8885027,27.1819395 C34.8243269,26.8434044 38.2707291,26.208651 41.0363606,26.5895031 C42.9084803,26.8434044 46.2697862,27.1819395 49.1630622,31.4559455 C51.3330191,34.6297124 51.1202782,38.4382326 50.1842184,40.3424927 C50.1842184,40.3424927 49.2481585,42.7122386 46.7803643,43.5162595 C45.6315636,43.8971115 44.7380519,44.0663791 44.0147329,44.1933298 C43.8870883,44.9127169 43.7168956,45.8436885 43.3339621,46.9439277 C42.5255467,49.3559905 40.1428489,50.329279 40.1428489,50.329279 C38.2281809,51.2602506 34.3988451,51.471835 31.2077319,49.3136736 C26.9103661,46.436125 26.5699807,43.1354075 26.3146917,41.2311474 C25.9317581,38.4805495 26.5699807,35.0528813 26.9103661,32.1330158 C27.1656552,29.5516854 26.399788,27.6474253 25.8041136,26.8857213 C25.5913727,26.5895031 25.0382464,25.7431652 25.0382464,25.7431652 Z" id="agilie_logo_small"></path>
                        </g>
                    </g>
                </g>
            </g>
        </g>
    </g>
</svg>